<svg xmlns="http://www.w3.org/2000/svg" width="200" height="29" viewBox="0 0 200 29"><path fill="#272C2F" fill-rule="evenodd" d="M190.61 9.271c.429-.994 1.063-1.49 1.902-1.49.599 0 1.058.251 1.378.752.319.502.519 1.306.598 2.412.02.205.036.389.045.553l.03.538c.01.194.015.414.015.66v.891h-4.613c0-1.884.215-3.323.645-4.316zm9.121 7.691c-.3.466-.55.816-.749 1.048-.2.234-.469.462-.809.684-.879.629-1.947.943-3.205.943-3.315 0-4.983-1.895-5.003-5.685h9.916a8.103 8.103 0 0 0-.795-2.706 6.885 6.885 0 0 0-1.572-2.068 6.83 6.83 0 0 0-2.216-1.307c-.84-.303-1.758-.455-2.756-.455a7.976 7.976 0 0 0-3.191.638 8.09 8.09 0 0 0-4.328 4.348 8.107 8.107 0 0 0-.63 3.191c0 1.116.2 2.149.6 3.101a7.513 7.513 0 0 0 1.662 2.478 7.678 7.678 0 0 0 2.517 1.642 8.203 8.203 0 0 0 3.13.592c1.178 0 2.256-.227 3.235-.683a7.115 7.115 0 0 0 2.516-1.961c.22-.284.415-.547.584-.791.17-.243.325-.496.465-.759.14-.264.279-.563.419-.898.14-.334.3-.745.479-1.231l-.269-.121zm-16.723 5.017a1.765 1.765 0 0 1-.195-.394 2.86 2.86 0 0 1-.12-.53 7.621 7.621 0 0 1-.059-.803 35.891 35.891 0 0 1-.016-1.184V.12c-.397.121-.734.227-1.012.317-.278.092-.552.182-.819.274-.269.091-.561.182-.879.272-.317.091-.715.197-1.192.319-.457.121-.849.222-1.177.303-.328.08-.632.157-.911.228-.28.071-.565.136-.854.197-.29.061-.635.131-1.034.212l.06.333c.499.021.894.097 1.183.228.29.131.544.348.765.652.239.323.399.702.478 1.136.08.435.12 1.107.12 2.016v12.461c0 .951-.03 1.623-.089 2.017-.06.395-.161.693-.3.894a1.46 1.46 0 0 1-.644.47c-.25.092-.634.157-1.153.198v.364h9.646v-.364c-.54-.041-.934-.106-1.184-.198a1.28 1.28 0 0 1-.614-.47zm-13.874-1.278c-.523 1.196-1.257 1.794-2.202 1.794-.543 0-1.035-.223-1.478-.669V9.848c.443-.284.784-.476 1.026-.578a1.86 1.86 0 0 1 .724-.152c.844 0 1.507.583 1.989 1.748.483 1.166.725 2.772.725 4.819 0 2.148-.262 3.82-.784 5.016zm5.98-8.984c-.271-.881-.651-1.642-1.142-2.28a5.289 5.289 0 0 0-1.758-1.49 4.81 4.81 0 0 0-2.253-.531 5.57 5.57 0 0 0-2.209.455c-.711.305-1.477.811-2.298 1.521V7.416c-.377.141-.704.263-.983.363-.278.101-.551.198-.819.288-.268.092-.561.182-.879.273-.318.092-.714.207-1.191.349-.476.142-.879.257-1.207.348-.328.091-.632.178-.911.258a23.696 23.696 0 0 1-1.858.455l.03.302c.519.042.923.128 1.213.259.289.131.544.338.764.621.12.162.214.333.284.516.07.181.125.393.165.636.04.242.07.53.09.864.02.333.03.722.03 1.167v10.852c0 .344-.005.627-.015.85-.01.222-.025.414-.045.576-.02.16-.05.323-.089.485-.06.383-.191.686-.39.909-.22.283-.479.48-.779.591-.299.112-.789.196-1.468.258V29h10.665v-.364c-.64-.041-1.109-.106-1.408-.196a1.435 1.435 0 0 1-.719-.466c-.1-.12-.18-.25-.239-.39a2.522 2.522 0 0 1-.151-.541 5.532 5.532 0 0 1-.075-.796 37.13 37.13 0 0 1-.015-1.158v-2.777c.521.406.997.689 1.427.852.431.161.937.243 1.518.243a5.999 5.999 0 0 0 2.794-.669 7.079 7.079 0 0 0 2.254-1.855c.64-.79 1.145-1.717 1.517-2.782.37-1.063.556-2.214.556-3.45 0-1.074-.136-2.052-.406-2.934zM150.522 22.13c-.19.284-.565.456-1.124.517v.364h8.448v-.364c-.46-.04-.804-.116-1.034-.227a1.153 1.153 0 0 1-.524-.5 1.1 1.1 0 0 1-.165-.53l-.045-.954-.029-.757v-7.963c0-2.867-1.149-4.3-3.445-4.3-.64 0-1.279.106-1.918.319a7.482 7.482 0 0 0-1.917.988c-.16.102-.305.202-.434.303-.13.102-.265.213-.405.335a15.39 15.39 0 0 0-.449.41 44.5 44.5 0 0 1-.569.533c-.358-1.926-1.529-2.888-3.515-2.888-.635 0-1.246.101-1.834.303-.588.203-1.231.538-1.93 1.004a10.902 10.902 0 0 0-.989.714 4.8 4.8 0 0 0-.419.38l-.479.487V7.416l-1.229.424c-.579.202-1.108.379-1.587.529-.479.152-.939.294-1.378.424-.44.132-.879.253-1.318.364l-1.378.348a2.8 2.8 0 0 1-.405.121c-.17.041-.364.081-.584.121l.03.303c.519.04.923.126 1.213.257.29.132.544.339.764.621.12.161.215.333.285.515.069.182.125.394.165.636.039.242.069.53.089.863.02.333.031.721.031 1.165v4.967c0 .949-.025 1.614-.076 1.998-.049.384-.164.686-.344.908a1.428 1.428 0 0 1-.689.47c-.257.084-.655.143-1.164.184-.473-.041-.838-.101-1.067-.185a1.284 1.284 0 0 1-.615-.471 2.467 2.467 0 0 1-.209-.395 2.163 2.163 0 0 1-.135-.532 7.423 7.423 0 0 1-.059-.806c-.011-.324-.016-.72-.016-1.186V7.355a75.9 75.9 0 0 1-.988.364 26.055 26.055 0 0 1-1.738.563c-.319.091-.709.208-1.168.349-.46.143-.854.259-1.184.35l-.913.258c-.28.081-.565.158-.853.229-.29.071-.635.147-1.034.227l.03.305c.519.04.923.126 1.213.258.289.132.544.339.764.623.12.163.215.335.285.517.07.182.129.395.179.639.05.243.085.531.105.866.02.334.03.724.03 1.17v4.986c0 .953-.03 1.622-.09 2.006-.06.386-.17.69-.329.913a1.29 1.29 0 0 1-.614.471c-.251.091-.645.157-1.184.198v.364h18.572v-.364a2.221 2.221 0 0 1-.703-.152.918.918 0 0 1-.435-.365c-.1-.162-.17-.38-.209-.654a7.493 7.493 0 0 1-.06-1.049v-9.729c.419-.405.793-.688 1.123-.85.33-.163.664-.244 1.004-.244.299 0 .573.061.823.183.25.121.435.294.554.517.16.263.265.562.315.896.05.335.075.847.075 1.535v7.692c0 .426-.02.775-.06 1.049-.04.274-.11.492-.21.654a.927.927 0 0 1-.419.365c-.18.081-.41.131-.689.152v.364h8.058v-.364c-.299-.021-.539-.071-.719-.152a.935.935 0 0 1-.42-.365c-.1-.162-.169-.38-.209-.654a7.493 7.493 0 0 1-.06-1.049v-9.729c.443-.405.835-.693 1.177-.865a2.268 2.268 0 0 1 1.027-.259c.261 0 .518.061.77.183.251.121.437.283.558.485.141.224.236.518.287.882.05.365.075.903.075 1.611v7.692c0 .851-.095 1.419-.284 1.703zM122.843 5.5c.289.284.624.512 1.003.684.38.173.789.258 1.228.258.439 0 .854-.085 1.244-.258.389-.172.728-.4 1.018-.684.29-.283.52-.623.689-1.018a3.18 3.18 0 0 0 .255-1.262 3.18 3.18 0 0 0-.255-1.262 3.13 3.13 0 0 0-.689-1.018 3.43 3.43 0 0 0-1.018-.684 3.05 3.05 0 0 0-1.244-.259c-.439 0-.853.087-1.243.259a3.09 3.09 0 0 0-1.003.7 3.5 3.5 0 0 0-.674 1.018c-.17.385-.255.8-.255 1.246 0 .446.085.866.255 1.262.17.395.4.735.689 1.018zm-7.264 7.763l-2.037-.67c-1.897-.629-2.846-1.553-2.846-2.772 0-.568.205-1.05.614-1.447.41-.395.903-.593 1.483-.593.479 0 .978.136 1.498.41a6.624 6.624 0 0 1 1.528 1.14c.499.486.968 1.064 1.407 1.732.439.669.819 1.399 1.139 2.19h.299l-.299-4.986c-1.119-.324-2.087-.548-2.906-.669a16.59 16.59 0 0 0-2.426-.183c-.919 0-1.767.128-2.546.381-.779.254-1.453.604-2.023 1.051a5.084 5.084 0 0 0-1.347 1.584 4.09 4.09 0 0 0-.495 1.98c0 1.117.409 2.077 1.229 2.878.818.803 2.186 1.539 4.103 2.208l1.468.519c1.058.365 1.792.762 2.202 1.188.409.427.614.975.614 1.645 0 .65-.2 1.178-.599 1.584-.4.406-.929.609-1.587.609-.64 0-1.284-.168-1.933-.502-.649-.334-1.288-.815-1.917-1.444-.629-.628-1.228-1.393-1.797-2.295a21.766 21.766 0 0 1-1.573-3.025h-.299l.299 6.05a13.027 13.027 0 0 0 1.138.425c.18.062.375.122.584.183.21.06.484.142.824.243a18.1 18.1 0 0 0 2.397.589c.319.056.614.094.883.112.27.019.544.029.824.029.958 0 1.847-.138 2.666-.411.818-.274 1.523-.656 2.112-1.142a5.2 5.2 0 0 0 1.378-1.752c.329-.68.494-1.417.494-2.209 0-1.097-.359-2.01-1.078-2.741-.719-.731-1.877-1.361-3.475-1.889zm-11.113 8.656a1.104 1.104 0 0 1-.165-.531c-.01-.191-.026-.51-.045-.954l-.03-.759v-8.034c0-.849-.06-1.511-.18-1.986a3.125 3.125 0 0 0-.599-1.229c-.559-.686-1.388-1.03-2.486-1.03-.64 0-1.263.107-1.872.318-.61.212-1.263.551-1.962 1.016a18.538 18.538 0 0 0-1.468 1.091c-.2.162-.44.364-.719.607V.12c-.398.141-.745.257-1.043.348-.298.091-.586.182-.864.273-.277.091-.571.177-.878.257-.309.082-.671.182-1.087.304-.398.101-.751.192-1.058.273a50.124 50.124 0 0 1-1.81.44c-.32.07-.689.146-1.109.227l.03.333c.519.021.924.097 1.214.228.289.131.543.348.763.652.22.323.37.702.45 1.136.079.435.12 1.107.12 2.016v12.461c0 .951-.03 1.618-.09 2.002-.06.384-.17.687-.33.909a1.428 1.428 0 0 1-.689.47c-.28.092-.709.157-1.288.198v.364h9.077v-.364c-.36-.041-.629-.117-.809-.228a1.1 1.1 0 0 1-.42-.502 1.64 1.64 0 0 1-.089-.304 5.178 5.178 0 0 1-.09-1.004v-9.728c.462-.405.88-.694 1.252-.866a2.55 2.55 0 0 1 1.071-.258c.262 0 .513.06.755.181.241.122.432.285.573.487a1.8 1.8 0 0 1 .317.745c.051.274.076.684.076 1.231v8.026c0 .851-.095 1.419-.285 1.703-.19.284-.564.456-1.123.517v.364h8.447v-.364c-.459-.041-.804-.117-1.034-.228a1.151 1.151 0 0 1-.523-.5zm-18.602-.767c-.24.041-.5.061-.779.061-.899 0-1.538-.249-1.918-.746-.379-.498-.569-1.326-.569-2.483V9.21h3.026l.749-1.399h-3.775V1.609c-.277.406-.521.755-.729 1.049-.209.294-.418.567-.626.821-.209.253-.427.497-.655.729-.229.234-.492.492-.79.775a25.01 25.01 0 0 1-2.413 2.037c-.359.264-.673.487-.943.669a14.36 14.36 0 0 1-1.692 1.003c-.32.163-.689.335-1.108.518h3.684v9.109c0 1.117.099 1.981.298 2.59a3.218 3.218 0 0 0 1.043 1.523c.793.649 1.776.975 2.948.975.836 0 1.657-.174 2.466-.518.809-.345 1.772-.935 2.891-1.767l-.18-.244c-.38.142-.689.234-.928.274zm-13.241.827a1.72 1.72 0 0 1-.194-.394 2.775 2.775 0 0 1-.121-.53 7.621 7.621 0 0 1-.059-.803 35.891 35.891 0 0 1-.016-1.184V.12c-.397.121-.734.227-1.012.317-.278.092-.551.182-.819.274-.269.091-.561.182-.879.272-.317.091-.715.197-1.192.319a77.49 77.49 0 0 1-1.176.303c-.329.08-.633.157-.912.228-.28.071-.565.136-.854.197-.29.061-.634.131-1.033.212l.059.333c.5.021.894.097 1.184.228.289.131.543.348.764.652.239.323.399.702.479 1.136.079.435.119 1.107.119 2.016v12.461c0 .951-.029 1.623-.089 2.017-.06.395-.16.693-.299.894a1.468 1.468 0 0 1-.645.47c-.25.092-.634.157-1.153.198v.364h9.646v-.364c-.54-.041-.934-.106-1.184-.198a1.28 1.28 0 0 1-.614-.47zm-15.715-2.92c0 .71-.161 1.267-.48 1.672-.319.406-.759.608-1.318.608s-.988-.243-1.288-.729c-.299-.487-.45-1.186-.45-2.098 0-.77.11-1.408.33-1.915.22-.507.579-.932 1.079-1.277.279-.223.559-.39.838-.502.28-.111.709-.268 1.289-.471v4.712zm7.787 1.703a3.41 3.41 0 0 1-.673.319 1.81 1.81 0 0 1-.524.076c-.26 0-.49-.056-.689-.167a.906.906 0 0 1-.42-.472c-.1-.182-.16-.399-.179-.653-.021-.254-.03-.674-.03-1.261v-6.993c0-.891-.085-1.586-.254-2.083a2.883 2.883 0 0 0-.908-1.292c-.655-.547-1.559-.82-2.711-.82-1.112 0-2.333.157-3.661.47a19.363 19.363 0 0 0-3.849 1.354c-2.317 1.074-3.475 2.351-3.475 3.83 0 .629.194 1.14.584 1.536.39.394.893.592 1.513.592.838 0 1.542-.278 2.112-.836.569-.557.913-1.322 1.033-2.295l.12-.912c.1-.648.214-1.156.344-1.52.13-.365.325-.659.584-.882.2-.162.435-.293.704-.396.27-.1.544-.151.824-.151.379 0 .709.106.989.319.279.213.468.502.568.867.14.506.211 1.51.211 3.009v1.581c-3.216.953-5.732 1.945-7.549 2.98-1.399.81-2.097 1.854-2.097 3.131 0 .993.398 1.793 1.195 2.401.798.608 1.825.913 3.08.913 1.395 0 2.59-.345 3.587-1.034.359-.243.658-.487.897-.729.239-.243.538-.619.897-1.126.379 1.946 1.375 2.919 2.99 2.919.757 0 1.514-.188 2.273-.563.757-.374 1.656-1.007 2.695-1.899l-.181-.213zM36.398 9.271c.429-.994 1.063-1.49 1.901-1.49.599 0 1.059.251 1.379.752.319.502.519 1.306.598 2.412.02.205.036.389.045.553l.03.538c.01.194.015.414.015.66v.891h-4.613c0-1.884.215-3.323.645-4.316zm8.372 8.739c-.2.234-.47.462-.809.684-.879.629-1.947.943-3.205.943-3.315 0-4.983-1.895-5.003-5.685h9.916a8.103 8.103 0 0 0-.795-2.706 6.885 6.885 0 0 0-1.572-2.068 6.824 6.824 0 0 0-2.217-1.307c-.838-.303-1.757-.455-2.756-.455a7.975 7.975 0 0 0-3.19.638 8.09 8.09 0 0 0-4.328 4.348 8.107 8.107 0 0 0-.63 3.191c0 1.116.2 2.149.6 3.101a7.513 7.513 0 0 0 1.662 2.478 7.684 7.684 0 0 0 2.516 1.642 8.212 8.212 0 0 0 3.131.592c1.178 0 2.256-.227 3.235-.683a7.132 7.132 0 0 0 2.516-1.961c.22-.284.415-.547.584-.791.17-.243.325-.496.465-.759.139-.264.279-.563.419-.898.14-.334.3-.745.479-1.231l-.269-.121c-.3.466-.55.816-.749 1.048zM31.887 6.002c.39-.638.774-1.19 1.154-1.657.279-.345.544-.597.794-.76.249-.162.624-.344 1.123-.547v-.304h-7.519v.304c.439.101.769.208.988.319.22.112.42.279.6.502.499.628.749 1.53.749 2.705 0 1.034-.205 2.23-.614 3.588-.41 1.358-.994 2.837-1.753 4.438l-.749 1.551-3.744-9.03c-.18-.445-.325-.881-.434-1.307-.111-.426-.165-.76-.165-1.003 0-.993.539-1.581 1.618-1.763v-.304H13.09v.304c.38.061.675.136.884.228.21.091.395.218.554.38.459.466.949 1.307 1.468 2.523l1.767 4.195-3.055 6.233-4.673-10.884c-.179-.425-.27-.801-.27-1.125 0-.384.095-.694.285-.927.19-.233.504-.441.944-.623v-.304H0v.304c.579.162 1.028.33 1.348.501.319.172.619.431.898.776.34.405.71.942 1.109 1.61.4.67.739 1.329 1.018 1.977l7.16 16.113 6.381-13.134 5.631 13.134 7.309-16.052c.3-.669.644-1.323 1.033-1.961z"/></svg>